<svg width="90" height="90" viewBox="0 0 90 90" fill="none" xmlns="http://www.w3.org/2000/svg">
<g clip-path="url(#clip0_2_661)">
<path d="M45 90C69.8528 90 90 69.8528 90 45C90 20.1472 69.8528 0 45 0C20.1472 0 0 20.1472 0 45C0 69.8528 20.1472 90 45 90Z" fill="url(#paint0_linear_2_661)"/>
<path d="M45.0473 51.6236L44.5099 49.4738L41.2877 55.9296H43.4413C44.1568 55.9296 44.7792 56.4175 44.9527 57.1127L45.4901 59.2625L48.7123 52.8066H46.5587C45.8432 52.8068 45.2208 52.3188 45.0473 51.6236ZM59.6863 34.7353C59.2024 34.5111 58.6376 34.5493 58.1901 34.8328C57.7411 35.1195 57.4687 35.6164 57.4687 36.1501V38.7545C57.4687 39.616 56.7701 40.3158 55.91 40.3158C55.1399 40.3158 54.4885 39.7608 54.3621 39.006C53.0944 31.1323 47.3196 18.457 45 18.457C42.6804 18.457 36.9056 31.1323 35.6393 38.9971C35.5115 39.761 34.8601 40.316 34.0898 40.316C33.2299 40.316 32.5311 39.6162 32.5311 38.7547V36.1503C32.5311 35.6166 32.2587 35.1195 31.8097 34.833C31.3608 34.5493 30.799 34.5113 30.3135 34.7354C25.0077 37.2146 21.6211 48.019 21.6211 54.3681C21.6211 64.4803 31.2344 71.543 45 71.543C58.7656 71.543 68.3789 64.4803 68.3789 54.3681C68.3789 48.019 64.9923 37.2146 59.6863 34.7353ZM52.6286 51.9437L46.3941 64.4346C46.1081 65.0058 45.4964 65.3586 44.8295 65.2883C44.181 65.2166 43.6468 64.7485 43.4886 64.1143L42.2237 59.0521H38.7656C38.2252 59.0521 37.7244 58.7716 37.4398 58.311C37.1552 57.8505 37.1294 57.2757 37.3713 56.7923L43.6057 44.3014C43.898 43.7189 44.5159 43.3789 45.1703 43.4475C45.8188 43.5192 46.353 43.9873 46.5112 44.6215L47.7761 49.6837H51.2343C51.7746 49.6837 52.2754 49.9642 52.56 50.4248C52.8446 50.8853 52.8706 51.4603 52.6286 51.9437Z" fill="url(#paint1_linear_2_661)"/>
</g>
<defs>
<linearGradient id="paint0_linear_2_661" x1="45" y1="90" x2="45" y2="0" gradientUnits="userSpaceOnUse">
<stop stop-color="#FFE59A"/>
<stop offset="1" stop-color="#FFFFD5"/>
</linearGradient>
<linearGradient id="paint1_linear_2_661" x1="45" y1="71.543" x2="45" y2="18.457" gradientUnits="userSpaceOnUse">
<stop stop-color="#FFDE00"/>
<stop offset="1" stop-color="#FD5900"/>
</linearGradient>
<clipPath id="clip0_2_661">
<rect width="90" height="90" fill="white"/>
</clipPath>
</defs>
</svg>
