<svg width="120" height="120" viewBox="0 0 120 120" fill="none" xmlns="http://www.w3.org/2000/svg">
<g clip-path="url(#clip0_31_33)">
<path d="M60 120C93.1371 120 120 93.1371 120 60C120 26.8629 93.1371 0 60 0C26.8629 0 0 26.8629 0 60C0 93.1371 26.8629 120 60 120Z" fill="url(#paint0_linear_31_33)"/>
<g clip-path="url(#clip1_31_33)">
<path fill-rule="evenodd" clip-rule="evenodd" d="M53.4064 24.3003C54.8489 32.5827 57.9387 39.9924 61.1786 46.7002C61.6609 45.7236 62.1706 44.7226 62.6938 43.7033C65.6016 38.0026 68.9143 31.5024 70.202 24.0134C70.3204 23.3115 70.8391 22.8781 71.3624 23.0368C71.7355 23.1528 72.0086 23.5373 72.0905 24.0073C73.3873 31.4597 76.6955 37.9599 79.6032 43.6667C82.4927 49.343 85.0046 54.2807 85.0046 58.9743C85.0046 67.684 81.3961 73.2688 76.7819 75.7163C75.1756 76.5708 73.4465 77.0346 71.7082 77.114C69.3238 105.996 35 104.928 35 73.8974C35 61.2021 49.7024 45.8029 53.4064 24.3003ZM62.3389 49.0622C67.1123 58.6386 71.8356 66.738 71.8356 73.8974C71.8356 74.1049 71.8265 74.3003 71.8265 74.5017C73.2827 74.404 74.7252 74.0073 76.063 73.2932C79.99 71.2119 83.057 66.4389 83.057 58.9743C83.057 55.0803 80.7044 50.4538 77.9969 45.1316C75.5442 40.3098 72.814 34.9448 71.144 28.823C69.4785 34.9814 66.7437 40.3464 64.2865 45.1621C63.6085 46.5048 62.9441 47.8049 62.3389 49.0622ZM42.1942 70.2902C42.1032 68.9109 42.8586 67.6963 43.887 67.5681C44.9154 67.4399 45.8209 68.4592 45.9165 69.8386C46.1485 73.1711 46.69 76.2351 47.7321 78.884C48.7377 81.4414 50.2257 83.6386 52.3826 85.3354C53.2745 86.0312 53.5703 87.5693 53.0515 88.7595C52.5282 89.9558 51.3861 90.3525 50.4987 89.6567C47.6911 87.4472 45.7435 84.5786 44.4285 81.2216C43.1361 77.9502 42.4718 74.2514 42.1942 70.2902Z" fill="#F7F1FF"/>
</g>
</g>
<defs>
<linearGradient id="paint0_linear_31_33" x1="60" y1="120" x2="60" y2="0" gradientUnits="userSpaceOnUse">
<stop stop-color="#74E6FF"/>
<stop offset="1" stop-color="#CFF4FF"/>
</linearGradient>
<clipPath id="clip0_31_33">
<rect width="120" height="120" fill="white"/>
</clipPath>
<clipPath id="clip1_31_33">
<rect width="50" height="75" fill="white" transform="translate(35 23)"/>
</clipPath>
</defs>
</svg>
