<svg width="150" height="150" viewBox="0 0 150 150" fill="none" xmlns="http://www.w3.org/2000/svg">
<g clip-path="url(#clip0_32_49)">
<path d="M75 150C116.421 150 150 116.421 150 75C150 33.5786 116.421 0 75 0C33.5786 0 0 33.5786 0 75C0 116.421 33.5786 150 75 150Z" fill="url(#paint0_linear_32_49)"/>
<path d="M27.9297 101.741C29.5914 101.741 30.3004 102.452 31.7459 104.061C33.3492 105.845 35.5451 108.289 39.6967 108.289C43.8484 108.289 46.0443 105.845 47.6477 104.061C49.6139 101.872 49.866 102.093 50.6408 101.813C52.845 101.386 53.8337 102.45 55.2805 104.061C56.8837 105.845 59.0797 108.289 63.2313 108.289C67.3829 108.289 69.5789 105.845 71.1821 104.061C72.6274 102.452 73.3363 101.741 74.9982 101.741C76.66 101.741 77.3692 102.452 78.8147 104.061C80.4179 105.845 82.6139 108.289 86.7655 108.289C90.9176 108.289 93.1132 105.845 94.7168 104.061C96.1624 102.452 96.8716 101.741 98.5334 101.741C100.196 101.741 100.905 102.452 102.35 104.061C103.954 105.845 106.15 108.289 110.302 108.289C114.454 108.289 116.65 105.845 118.253 104.061C119.699 102.452 120.408 101.741 122.07 101.741C123.688 101.741 125 100.274 125 98.4662C125 96.6579 123.688 95.1918 122.07 95.1918C117.918 95.1918 115.722 97.6359 114.119 99.4203C112.673 101.029 111.964 101.741 110.302 101.741C107.605 101.741 106.961 99.3874 104.253 97.2129C114.103 73.3941 98.4774 46.0765 75 46.0765C51.5247 46.0765 35.8939 73.3985 45.7443 97.2135C43.0656 99.365 42.3844 101.741 39.6967 101.741C38.035 101.741 37.326 101.029 35.8805 99.4206C34.2773 97.6359 32.0814 95.1918 27.9297 95.1918C26.3117 95.1918 25 96.6579 25 98.4662C25 100.274 26.3117 101.741 27.9297 101.741ZM48.6328 82.0944C48.6328 65.845 60.4611 52.6252 75 52.6252C94.5603 52.6252 107.282 75.6965 98.6247 95.1935C94.9239 95.1612 92.8124 96.9388 90.5826 99.4203C89.1371 101.029 88.4279 101.741 86.7661 101.741C85.1042 101.741 84.395 101.029 82.9497 99.4206C81.3463 97.6362 79.1503 95.1918 74.9987 95.1918C70.8468 95.1918 68.6511 97.6359 67.0479 99.4206C65.6026 101.029 64.8937 101.741 63.2316 101.741C61.5697 101.741 60.8608 101.029 59.4153 99.4206C57.1313 96.8782 55.0487 95.1638 51.3763 95.1935C49.5777 91.1435 48.6328 86.6571 48.6328 82.0944Z" fill="#FFDE00"/>
<path d="M122.07 110.472C117.918 110.472 115.722 112.916 114.119 114.701C112.673 116.31 111.964 117.021 110.302 117.021C108.64 117.021 107.931 116.31 106.485 114.701C104.882 112.916 102.686 110.472 98.5337 110.472C94.3816 110.472 92.1861 112.916 90.5824 114.701C89.1368 116.31 88.4276 117.021 86.7658 117.021C85.1039 117.021 84.395 116.31 82.9495 114.701C81.3461 112.916 79.1503 110.472 74.9984 110.472C70.8466 110.472 68.6511 112.916 67.0476 114.701C65.6024 116.31 64.8934 117.021 63.2313 117.021C61.5695 117.021 60.8605 116.31 59.415 114.701C57.8118 112.916 55.6158 110.472 51.4639 110.472C47.3121 110.472 45.1164 112.916 43.5131 114.701C42.0676 116.31 41.3586 117.021 39.6967 117.021C38.035 117.021 37.326 116.31 35.8805 114.701C34.2773 112.916 32.0814 110.472 27.9297 110.472C26.3117 110.472 25 111.938 25 113.746C25 115.555 26.3117 117.021 27.9297 117.021C29.5914 117.021 30.3004 117.732 31.7459 119.341C33.3492 121.125 35.5451 123.57 39.6967 123.57C43.8484 123.57 46.0443 121.126 47.6477 119.341C49.0932 117.732 49.8023 117.021 51.4642 117.021C53.1261 117.021 53.8353 117.732 55.2808 119.341C56.8839 121.125 59.08 123.57 63.2313 123.57C67.3829 123.57 69.5792 121.126 71.1821 119.341C72.6276 117.732 73.3366 117.021 74.9982 117.021C76.6603 117.021 77.3692 117.732 78.8147 119.341C80.4182 121.126 82.6139 123.57 86.7658 123.57C90.9179 123.57 93.1134 121.126 94.7171 119.341C96.1624 117.732 96.8716 117.021 98.5337 117.021C100.196 117.021 100.905 117.732 102.351 119.341C103.954 121.126 106.15 123.57 110.302 123.57C114.454 123.57 116.65 121.126 118.253 119.341C119.699 117.732 120.408 117.021 122.07 117.021C123.688 117.021 125 115.555 125 113.746C125 111.938 123.688 110.472 122.07 110.472Z" fill="#FFDE00"/>
<path d="M75 39.5278C76.6179 39.5278 77.9297 38.0618 77.9297 36.2534V29.7047C77.9297 27.8964 76.6179 26.4304 75 26.4304C73.3821 26.4304 72.0703 27.8964 72.0703 29.7047V36.2534C72.0703 38.0618 73.3821 39.5278 75 39.5278Z" fill="#FFDE00"/>
<path d="M51.9542 44.0336C52.7674 45.6075 54.5616 46.1321 55.9561 45.232C57.3574 44.3279 57.8374 42.3253 57.0284 40.7593L54.0987 35.0879C53.2897 33.5219 51.4979 32.9851 50.0968 33.8894C48.6956 34.7936 48.2155 36.7962 49.0245 38.3622L51.9542 44.0336Z" fill="#FFDE00"/>
<path d="M32.9402 58.7362C37.8793 61.7732 38.151 62.4497 39.4768 62.4497C42.4695 62.4497 43.5291 58.0071 40.9443 56.3391L35.8699 53.0646C34.4686 52.1601 32.6768 52.697 31.868 54.2631C31.0588 55.8294 31.5389 57.8318 32.9402 58.7362Z" fill="#FFDE00"/>
<path d="M28.125 85.3688H33.9844C35.6023 85.3688 36.9141 83.9027 36.9141 82.0944C36.9141 80.2862 35.6023 78.82 33.9844 78.82H28.125C26.507 78.82 25.1953 80.2862 25.1953 82.0944C25.1953 83.9027 26.507 85.3688 28.125 85.3688Z" fill="#FFDE00"/>
<path d="M113.086 82.0944C113.086 83.9027 114.398 85.3688 116.016 85.3688H121.875C123.493 85.3688 124.805 83.9027 124.805 82.0944C124.805 80.2862 123.493 78.82 121.875 78.82H116.016C114.398 78.82 113.086 80.2862 113.086 82.0944Z" fill="#FFDE00"/>
<path d="M111.985 62.01L117.059 58.7359C118.461 57.8315 118.941 55.8291 118.132 54.263C117.323 52.6969 115.531 52.1602 114.13 53.0645L109.056 56.3388C107.654 57.2429 107.174 59.2456 107.983 60.8118C108.796 62.3856 110.591 62.91 111.985 62.01Z" fill="#FFDE00"/>
<path d="M94.0421 45.2293C95.4371 46.1297 97.2319 45.6036 98.044 44.0309L100.974 38.3594C101.783 36.7934 101.303 34.7908 99.9013 33.8867C98.5 32.9821 96.7082 33.5191 95.8995 35.0851L92.9698 40.7565C92.1608 42.3225 92.6408 44.3251 94.0421 45.2293Z" fill="#FFDE00"/>
</g>
<defs>
<linearGradient id="paint0_linear_32_49" x1="75" y1="150" x2="75" y2="0" gradientUnits="userSpaceOnUse">
<stop stop-color="#FFE59A"/>
<stop offset="1" stop-color="#FFFFD5"/>
</linearGradient>
<clipPath id="clip0_32_49">
<rect width="150" height="150" fill="white"/>
</clipPath>
</defs>
</svg>
